<?xml version="1.0" encoding="UTF-8"?>
<svg xmlns="http://www.w3.org/2000/svg" xmlns:xlink="http://www.w3.org/1999/xlink" width="640" height="450" viewBox="0 0 640 450">
<defs>
<g>
<g id="glyph-0-0-6c54a9d0">
<path d="M 8.578125 0 C 8.578125 0 1.265625 0 1.265625 0 C 1.265625 0 1.265625 -10.203125 1.265625 -10.203125 C 1.265625 -10.203125 8.328125 -10.203125 8.328125 -10.203125 C 8.328125 -10.203125 8.328125 -9.0625 8.328125 -9.0625 C 8.328125 -9.0625 2.5625 -9.0625 2.5625 -9.0625 C 2.5625 -9.0625 2.5625 -5.796875 2.5625 -5.796875 C 2.5625 -5.796875 8.125 -5.796875 8.125 -5.796875 C 8.125 -5.796875 8.125 -4.640625 8.125 -4.640625 C 8.125 -4.640625 2.5625 -4.640625 2.5625 -4.640625 C 2.5625 -4.640625 2.5625 -1.140625 2.5625 -1.140625 C 2.5625 -1.140625 8.578125 -1.140625 8.578125 -1.140625 C 8.578125 -1.140625 8.578125 0 8.578125 0 Z M 8.578125 0 "/>
</g>
<g id="glyph-0-1-6c54a9d0">
<path d="M 6.421875 -2.0625 C 6.421875 -0.640625 5.25 0.203125 3.40625 0.203125 C 1.484375 0.203125 0.53125 -0.546875 0.46875 -2.234375 C 0.46875 -2.234375 1.703125 -2.234375 1.703125 -2.234375 C 1.859375 -1.125 2.453125 -0.875 3.5 -0.875 C 4.515625 -0.875 5.203125 -1.28125 5.203125 -1.953125 C 5.203125 -2.484375 4.890625 -2.734375 4.078125 -2.921875 C 4.078125 -2.921875 2.984375 -3.1875 2.984375 -3.1875 C 1.25 -3.609375 0.65625 -4.15625 0.65625 -5.3125 C 0.65625 -6.65625 1.765625 -7.546875 3.46875 -7.546875 C 5.171875 -7.546875 6.125 -6.734375 6.125 -5.296875 C 6.125 -5.296875 4.90625 -5.296875 4.90625 -5.296875 C 4.875 -6.0625 4.375 -6.46875 3.4375 -6.46875 C 2.484375 -6.46875 1.875 -6.03125 1.875 -5.359375 C 1.875 -4.84375 2.28125 -4.53125 3.234375 -4.3125 C 3.234375 -4.3125 4.359375 -4.046875 4.359375 -4.046875 C 5.8125 -3.703125 6.421875 -3.15625 6.421875 -2.0625 Z M 6.421875 -2.0625 "/>
</g>
<g id="glyph-0-2-6c54a9d0">
<path d="M 3.5625 0 C 3.15625 0.0625 2.890625 0.09375 2.609375 0.09375 C 1.6875 0.09375 1.1875 -0.328125 1.1875 -1.0625 C 1.1875 -1.0625 1.1875 -6.390625 1.1875 -6.390625 C 1.1875 -6.390625 0.203125 -6.390625 0.203125 -6.390625 C 0.203125 -6.390625 0.203125 -7.34375 0.203125 -7.34375 C 0.203125 -7.34375 1.1875 -7.34375 1.1875 -7.34375 C 1.1875 -7.34375 1.1875 -9.359375 1.1875 -9.359375 C 1.1875 -9.359375 2.359375 -9.359375 2.359375 -9.359375 C 2.359375 -9.359375 2.359375 -7.34375 2.359375 -7.34375 C 2.359375 -7.34375 3.5625 -7.34375 3.5625 -7.34375 C 3.5625 -7.34375 3.5625 -6.390625 3.5625 -6.390625 C 3.5625 -6.390625 2.359375 -6.390625 2.359375 -6.390625 C 2.359375 -6.390625 2.359375 -1.578125 2.359375 -1.578125 C 2.359375 -1.0625 2.484375 -0.921875 3 -0.921875 C 3.21875 -0.921875 3.40625 -0.9375 3.5625 -0.984375 C 3.5625 -0.984375 3.5625 0 3.5625 0 Z M 3.5625 0 "/>
</g>
<g id="glyph-0-3-6c54a9d0">
<path d="M 2.140625 0 C 2.140625 0 0.984375 0 0.984375 0 C 0.984375 0 0.984375 -7.34375 0.984375 -7.34375 C 0.984375 -7.34375 2.140625 -7.34375 2.140625 -7.34375 C 2.140625 -7.34375 2.140625 0 2.140625 0 Z M 2.296875 -8.4375 C 2.296875 -8.4375 0.84375 -8.4375 0.84375 -8.4375 C 0.84375 -8.4375 0.84375 -9.890625 0.84375 -9.890625 C 0.84375 -9.890625 2.296875 -9.890625 2.296875 -9.890625 C 2.296875 -9.890625 2.296875 -8.4375 2.296875 -8.4375 Z M 2.296875 -8.4375 "/>
</g>
<g id="glyph-0-4-6c54a9d0">
<path d="M 10.640625 0 C 10.640625 0 9.484375 0 9.484375 0 C 9.484375 0 9.484375 -5.046875 9.484375 -5.046875 C 9.484375 -5.984375 8.984375 -6.53125 8.140625 -6.53125 C 7.1875 -6.53125 6.390625 -5.671875 6.390625 -4.609375 C 6.390625 -4.609375 6.390625 0 6.390625 0 C 6.390625 0 5.234375 0 5.234375 0 C 5.234375 0 5.234375 -5.046875 5.234375 -5.046875 C 5.234375 -5.984375 4.75 -6.53125 3.875 -6.53125 C 2.921875 -6.53125 2.15625 -5.671875 2.15625 -4.609375 C 2.15625 -4.609375 2.15625 0 2.15625 0 C 2.15625 0 1 0 1 0 C 1 0 1 -7.34375 1 -7.34375 C 1 -7.34375 2.0625 -7.34375 2.0625 -7.34375 C 2.0625 -7.34375 2.0625 -6.296875 2.0625 -6.296875 C 2.6875 -7.1875 3.328125 -7.546875 4.3125 -7.546875 C 5.265625 -7.546875 5.859375 -7.203125 6.28125 -6.421875 C 6.96875 -7.25 7.5625 -7.546875 8.546875 -7.546875 C 9.90625 -7.546875 10.640625 -6.8125 10.640625 -5.5 C 10.640625 -5.5 10.640625 0 10.640625 0 Z M 10.640625 0 "/>
</g>
<g id="glyph-0-5-6c54a9d0">
<path d="M 7.484375 -0.03125 C 7.109375 0.0625 6.9375 0.09375 6.6875 0.09375 C 6.125 0.09375 5.609375 -0.3125 5.484375 -0.875 C 4.84375 -0.1875 3.9375 0.203125 3 0.203125 C 1.515625 0.203125 0.59375 -0.578125 0.59375 -1.90625 C 0.59375 -2.796875 1.015625 -3.453125 1.875 -3.8125 C 2.328125 -3.984375 2.578125 -4.046875 4.234375 -4.25 C 5.15625 -4.375 5.453125 -4.578125 5.453125 -5.0625 C 5.453125 -5.0625 5.453125 -5.375 5.453125 -5.375 C 5.453125 -6.078125 4.859375 -6.46875 3.8125 -6.46875 C 2.71875 -6.46875 2.1875 -6.0625 2.09375 -5.171875 C 2.09375 -5.171875 0.90625 -5.171875 0.90625 -5.171875 C 0.984375 -6.859375 2.078125 -7.546875 3.84375 -7.546875 C 5.65625 -7.546875 6.609375 -6.84375 6.609375 -5.546875 C 6.609375 -5.546875 6.609375 -1.453125 6.609375 -1.453125 C 6.609375 -1.09375 6.828125 -0.875 7.234375 -0.875 C 7.3125 -0.875 7.359375 -0.875 7.484375 -0.90625 C 7.484375 -0.90625 7.484375 -0.03125 7.484375 -0.03125 Z M 5.453125 -2.53125 C 5.453125 -2.53125 5.453125 -3.625 5.453125 -3.625 C 5.046875 -3.4375 4.796875 -3.390625 3.5625 -3.21875 C 2.328125 -3.03125 1.8125 -2.703125 1.8125 -1.9375 C 1.8125 -1.140625 2.34375 -0.8125 3.25 -0.8125 C 4.375 -0.8125 5.453125 -1.484375 5.453125 -2.53125 Z M 5.453125 -2.53125 "/>
</g>
<g id="glyph-0-6-6c54a9d0">
<path d="M 7.1875 -3.328125 C 7.1875 -3.328125 1.78125 -3.328125 1.78125 -3.328125 C 1.8125 -1.65625 2.71875 -0.875 3.9375 -0.875 C 4.875 -0.875 5.53125 -1.265625 5.859375 -2.21875 C 5.859375 -2.21875 7.03125 -2.21875 7.03125 -2.21875 C 6.734375 -0.734375 5.578125 0.203125 3.890625 0.203125 C 1.828125 0.203125 0.5625 -1.21875 0.5625 -3.625 C 0.5625 -6.03125 1.875 -7.546875 3.921875 -7.546875 C 5.296875 -7.546875 6.40625 -6.8125 6.890625 -5.609375 C 7.09375 -5.0625 7.1875 -4.390625 7.1875 -3.328125 Z M 5.9375 -4.375 C 5.9375 -5.515625 5.046875 -6.46875 3.90625 -6.46875 C 2.734375 -6.46875 1.90625 -5.59375 1.8125 -4.28125 C 1.8125 -4.28125 5.921875 -4.28125 5.921875 -4.28125 C 5.9375 -4.3125 5.9375 -4.375 5.9375 -4.375 Z M 5.9375 -4.375 "/>
</g>
<g id="glyph-0-7-6c54a9d0">
</g>
<g id="glyph-0-8-6c54a9d0">
<path d="M 6.8125 0 C 6.8125 0 5.65625 0 5.65625 0 C 5.65625 0 5.65625 -5.078125 5.65625 -5.078125 C 5.65625 -5.96875 5.0625 -6.53125 4.140625 -6.53125 C 2.953125 -6.53125 2.140625 -5.546875 2.140625 -4.046875 C 2.140625 -4.046875 2.140625 0 2.140625 0 C 2.140625 0 0.984375 0 0.984375 0 C 0.984375 0 0.984375 -7.34375 0.984375 -7.34375 C 0.984375 -7.34375 2.0625 -7.34375 2.0625 -7.34375 C 2.0625 -7.34375 2.0625 -6.109375 2.0625 -6.109375 C 2.703125 -7.125 3.40625 -7.546875 4.5 -7.546875 C 5.90625 -7.546875 6.8125 -6.765625 6.8125 -5.546875 C 6.8125 -5.546875 6.8125 0 6.8125 0 Z M 6.8125 0 "/>
</g>
<g id="glyph-0-9-6c54a9d0">
<path d="M 6.9375 0 C 6.9375 0 5.890625 0 5.890625 0 C 5.890625 0 5.890625 -1.078125 5.890625 -1.078125 C 5.265625 -0.171875 4.5625 0.203125 3.5625 0.203125 C 1.578125 0.203125 0.359375 -1.265625 0.359375 -3.734375 C 0.359375 -6.078125 1.609375 -7.546875 3.515625 -7.546875 C 4.5 -7.546875 5.28125 -7.15625 5.765625 -6.40625 C 5.765625 -6.40625 5.765625 -10.203125 5.765625 -10.203125 C 5.765625 -10.203125 6.9375 -10.203125 6.9375 -10.203125 C 6.9375 -10.203125 6.9375 0 6.9375 0 Z M 5.765625 -3.640625 C 5.765625 -5.328125 4.96875 -6.453125 3.703125 -6.453125 C 2.4375 -6.453125 1.578125 -5.375 1.578125 -3.671875 C 1.578125 -1.953125 2.4375 -0.875 3.71875 -0.875 C 4.953125 -0.875 5.765625 -1.953125 5.765625 -3.640625 Z M 5.765625 -3.640625 "/>
</g>
<g id="glyph-0-10-6c54a9d0">
<path d="M 7.125 -5.1875 C 7.125 -1.765625 5.875 0.203125 3.5625 0.203125 C 2.046875 0.203125 0.984375 -0.75 0.734375 -2.375 C 0.734375 -2.375 1.96875 -2.375 1.96875 -2.375 C 2.171875 -1.421875 2.765625 -0.875 3.640625 -0.875 C 5.046875 -0.875 5.84375 -2.21875 5.859375 -4.640625 C 5.203125 -3.875 4.515625 -3.546875 3.578125 -3.546875 C 1.796875 -3.546875 0.53125 -4.78125 0.53125 -6.640625 C 0.53125 -8.578125 1.890625 -9.921875 3.78125 -9.921875 C 6.046875 -9.921875 7.125 -8.296875 7.125 -5.1875 Z M 5.78125 -6.65625 C 5.78125 -7.953125 4.90625 -8.84375 3.765625 -8.84375 C 2.625 -8.84375 1.796875 -8 1.796875 -6.734375 C 1.796875 -5.40625 2.53125 -4.640625 3.71875 -4.640625 C 4.921875 -4.640625 5.78125 -5.453125 5.78125 -6.65625 Z M 5.78125 -6.65625 "/>
</g>
<g id="glyph-0-11-6c54a9d0">
<path d="M 7.1875 -3.296875 C 7.1875 -1.1875 5.78125 0.203125 3.78125 0.203125 C 2.015625 0.203125 0.890625 -0.578125 0.484375 -2.546875 C 0.484375 -2.546875 1.71875 -2.546875 1.71875 -2.546875 C 2.015625 -1.421875 2.671875 -0.875 3.75 -0.875 C 5.09375 -0.875 5.921875 -1.6875 5.921875 -3.125 C 5.921875 -4.59375 5.078125 -5.453125 3.75 -5.453125 C 2.984375 -5.453125 2.5 -5.203125 1.9375 -4.515625 C 1.9375 -4.515625 0.796875 -4.515625 0.796875 -4.515625 C 0.796875 -4.515625 1.546875 -9.71875 1.546875 -9.71875 C 1.546875 -9.71875 6.65625 -9.71875 6.65625 -9.71875 C 6.65625 -9.71875 6.65625 -8.5 6.65625 -8.5 C 6.65625 -8.5 2.53125 -8.5 2.53125 -8.5 C 2.53125 -8.5 2.140625 -5.9375 2.140625 -5.9375 C 2.71875 -6.359375 3.28125 -6.53125 3.96875 -6.53125 C 5.875 -6.53125 7.1875 -5.25 7.1875 -3.296875 Z M 7.1875 -3.296875 "/>
</g>
<g id="glyph-0-12-6c54a9d0">
<path d="M 5.1875 -7.171875 C 5.1875 -5.875 4.109375 -4.796875 2.796875 -4.796875 C 1.484375 -4.796875 0.40625 -5.875 0.40625 -7.203125 C 0.40625 -8.515625 1.484375 -9.59375 2.78125 -9.59375 C 4.125 -9.59375 5.1875 -8.53125 5.1875 -7.171875 Z M 4.21875 -7.1875 C 4.21875 -7.984375 3.578125 -8.609375 2.78125 -8.609375 C 2.015625 -8.609375 1.375 -7.984375 1.375 -7.203125 C 1.375 -6.421875 2.015625 -5.78125 2.796875 -5.78125 C 3.5625 -5.78125 4.21875 -6.40625 4.21875 -7.1875 Z M 9.453125 -9.921875 C 9.453125 -9.921875 3.921875 0.28125 3.921875 0.28125 C 3.921875 0.28125 3 0.28125 3 0.28125 C 3 0.28125 8.53125 -9.921875 8.53125 -9.921875 C 8.53125 -9.921875 9.453125 -9.921875 9.453125 -9.921875 Z M 12.03125 -2.09375 C 12.03125 -0.8125 10.9375 0.265625 9.640625 0.265625 C 8.328125 0.265625 7.25 -0.8125 7.25 -2.125 C 7.25 -3.4375 8.328125 -4.515625 9.625 -4.515625 C 10.96875 -4.515625 12.03125 -3.4375 12.03125 -2.09375 Z M 11.0625 -2.09375 C 11.0625 -2.890625 10.4375 -3.53125 9.625 -3.53125 C 8.859375 -3.53125 8.21875 -2.890625 8.21875 -2.125 C 8.21875 -1.34375 8.859375 -0.71875 9.640625 -0.71875 C 10.421875 -0.71875 11.0625 -1.34375 11.0625 -2.09375 Z M 11.0625 -2.09375 "/>
</g>
<g id="glyph-0-13-6c54a9d0">
<path d="M 6.671875 -2.515625 C 6.53125 -0.84375 5.4375 0.203125 3.6875 0.203125 C 1.6875 0.203125 0.4375 -1.234375 0.4375 -3.59375 C 0.4375 -6.03125 1.71875 -7.546875 3.703125 -7.546875 C 5.328125 -7.546875 6.453125 -6.65625 6.59375 -4.875 C 6.59375 -4.875 5.421875 -4.875 5.421875 -4.875 C 5.28125 -5.890625 4.65625 -6.46875 3.6875 -6.46875 C 2.40625 -6.46875 1.65625 -5.4375 1.65625 -3.59375 C 1.65625 -1.859375 2.421875 -0.875 3.703125 -0.875 C 4.703125 -0.875 5.3125 -1.34375 5.5 -2.515625 C 5.5 -2.515625 6.671875 -2.515625 6.671875 -2.515625 Z M 6.671875 -2.515625 "/>
</g>
<g id="glyph-0-14-6c54a9d0">
<path d="M 7.140625 -3.609375 C 7.140625 -1.203125 5.875 0.203125 3.828125 0.203125 C 1.734375 0.203125 0.5 -1.203125 0.5 -3.671875 C 0.5 -6.125 1.75 -7.546875 3.8125 -7.546875 C 5.921875 -7.546875 7.140625 -6.140625 7.140625 -3.609375 Z M 5.921875 -3.625 C 5.921875 -5.453125 5.140625 -6.46875 3.828125 -6.46875 C 2.515625 -6.46875 1.71875 -5.4375 1.71875 -3.671875 C 1.71875 -1.890625 2.515625 -0.875 3.828125 -0.875 C 5.109375 -0.875 5.921875 -1.90625 5.921875 -3.625 Z M 5.921875 -3.625 "/>
</g>
<g id="glyph-0-15-6c54a9d0">
<path d="M 3.609375 -6.390625 C 3.609375 -6.390625 2.390625 -6.390625 2.390625 -6.390625 C 2.390625 -6.390625 2.390625 0 2.390625 0 C 2.390625 0 1.234375 0 1.234375 0 C 1.234375 0 1.234375 -6.390625 1.234375 -6.390625 C 1.234375 -6.390625 0.25 -6.390625 0.25 -6.390625 C 0.25 -6.390625 0.25 -7.34375 0.25 -7.34375 C 0.25 -7.34375 1.234375 -7.34375 1.234375 -7.34375 C 1.234375 -7.34375 1.234375 -8.578125 1.234375 -8.578125 C 1.234375 -9.625 1.875 -10.25 2.953125 -10.25 C 3.1875 -10.25 3.34375 -10.234375 3.609375 -10.171875 C 3.609375 -10.171875 3.609375 -9.21875 3.609375 -9.21875 C 3.34375 -9.21875 3.296875 -9.21875 3.203125 -9.21875 C 2.671875 -9.21875 2.390625 -8.96875 2.390625 -8.484375 C 2.390625 -8.484375 2.390625 -7.34375 2.390625 -7.34375 C 2.390625 -7.34375 3.609375 -7.34375 3.609375 -7.34375 C 3.609375 -7.34375 3.609375 -6.390625 3.609375 -6.390625 Z M 3.609375 -6.390625 "/>
</g>
<g id="glyph-0-16-6c54a9d0">
<path d="M 4.5 -6.3125 C 2.6875 -6.28125 2.140625 -5.453125 2.140625 -3.8125 C 2.140625 -3.8125 2.140625 0 2.140625 0 C 2.140625 0 0.984375 0 0.984375 0 C 0.984375 0 0.984375 -7.34375 0.984375 -7.34375 C 0.984375 -7.34375 2.046875 -7.34375 2.046875 -7.34375 C 2.046875 -7.34375 2.046875 -6 2.046875 -6 C 2.71875 -7.09375 3.296875 -7.546875 4.046875 -7.546875 C 4.203125 -7.546875 4.296875 -7.53125 4.5 -7.5 C 4.5 -7.5 4.5 -6.3125 4.5 -6.3125 Z M 4.5 -6.3125 "/>
</g>
<g id="glyph-0-17-6c54a9d0">
<path d="M 6.796875 -7.34375 C 6.796875 -7.34375 3.984375 0 3.984375 0 C 3.984375 0 2.71875 0 2.71875 0 C 2.71875 0 0.140625 -7.34375 0.140625 -7.34375 C 0.140625 -7.34375 1.453125 -7.34375 1.453125 -7.34375 C 1.453125 -7.34375 3.421875 -1.390625 3.421875 -1.390625 C 3.421875 -1.390625 5.484375 -7.34375 5.484375 -7.34375 C 5.484375 -7.34375 6.796875 -7.34375 6.796875 -7.34375 Z M 6.796875 -7.34375 "/>
</g>
<g id="glyph-0-18-6c54a9d0">
<path d="M 2.109375 0 C 2.109375 0 0.953125 0 0.953125 0 C 0.953125 0 0.953125 -10.203125 0.953125 -10.203125 C 0.953125 -10.203125 2.109375 -10.203125 2.109375 -10.203125 C 2.109375 -10.203125 2.109375 0 2.109375 0 Z M 2.109375 0 "/>
</g>
<g id="glyph-0-19-6c54a9d0">
<path d="M 7.21875 -3.03125 C 7.21875 -3.03125 0.953125 -3.03125 0.953125 -3.03125 C 0.953125 -3.03125 0.953125 -3.96875 0.953125 -3.96875 C 0.953125 -3.96875 7.21875 -3.96875 7.21875 -3.96875 C 7.21875 -3.96875 7.21875 -3.03125 7.21875 -3.03125 Z M 7.21875 -3.03125 "/>
</g>
<g id="glyph-0-20-6c54a9d0">
<path d="M 7.15625 -7.015625 C 7.15625 -5.796875 6.4375 -4.765625 5.046875 -4.015625 C 5.046875 -4.015625 3.65625 -3.265625 3.65625 -3.265625 C 2.4375 -2.546875 1.984375 -2.03125 1.859375 -1.21875 C 1.859375 -1.21875 7.078125 -1.21875 7.078125 -1.21875 C 7.078125 -1.21875 7.078125 0 7.078125 0 C 7.078125 0 0.46875 0 0.46875 0 C 0.59375 -2.1875 1.1875 -3.125 3.265625 -4.296875 C 3.265625 -4.296875 4.546875 -5.03125 4.546875 -5.03125 C 5.4375 -5.53125 5.890625 -6.203125 5.890625 -6.984375 C 5.890625 -8.046875 5.046875 -8.84375 3.9375 -8.84375 C 2.71875 -8.84375 2.03125 -8.140625 1.9375 -6.484375 C 1.9375 -6.484375 0.703125 -6.484375 0.703125 -6.484375 C 0.765625 -8.890625 1.953125 -9.921875 3.96875 -9.921875 C 5.859375 -9.921875 7.15625 -8.6875 7.15625 -7.015625 Z M 7.15625 -7.015625 "/>
</g>
<g id="glyph-0-21-6c54a9d0">
<path d="M 4.859375 0 C 4.859375 0 3.625 0 3.625 0 C 3.625 0 3.625 -7.0625 3.625 -7.0625 C 3.625 -7.0625 1.421875 -7.0625 1.421875 -7.0625 C 1.421875 -7.0625 1.421875 -7.953125 1.421875 -7.953125 C 3.328125 -8.1875 3.609375 -8.40625 4.046875 -9.921875 C 4.046875 -9.921875 4.859375 -9.921875 4.859375 -9.921875 C 4.859375 -9.921875 4.859375 0 4.859375 0 Z M 4.859375 0 "/>
</g>
<g id="glyph-0-22-6c54a9d0">
<path d="M 7.09375 -4.78125 C 7.09375 -1.515625 5.953125 0.203125 3.84375 0.203125 C 1.71875 0.203125 0.609375 -1.515625 0.609375 -4.859375 C 0.609375 -8.1875 1.703125 -9.921875 3.84375 -9.921875 C 6 -9.921875 7.09375 -8.21875 7.09375 -4.78125 Z M 5.84375 -4.890625 C 5.84375 -7.546875 5.1875 -8.828125 3.84375 -8.828125 C 2.515625 -8.828125 1.859375 -7.5625 1.859375 -4.84375 C 1.859375 -2.125 2.515625 -0.8125 3.828125 -0.8125 C 5.1875 -0.8125 5.84375 -2.078125 5.84375 -4.890625 Z M 5.84375 -4.890625 "/>
</g>
<g id="glyph-0-23-6c54a9d0">
<path d="M 4.078125 2.96875 C 4.078125 2.96875 3.296875 2.96875 3.296875 2.96875 C 1.90625 1.140625 1.015625 -1.40625 1.015625 -3.625 C 1.015625 -5.828125 1.90625 -8.375 3.296875 -10.203125 C 3.296875 -10.203125 4.078125 -10.203125 4.078125 -10.203125 C 2.84375 -8.21875 2.15625 -5.859375 2.15625 -3.625 C 2.15625 -1.390625 2.84375 0.96875 4.078125 2.96875 Z M 4.078125 2.96875 "/>
</g>
<g id="glyph-0-24-6c54a9d0">
<path d="M 2.703125 0 C 2.703125 0 1.40625 0 1.40625 0 C 1.40625 0 1.40625 -10.203125 1.40625 -10.203125 C 1.40625 -10.203125 2.703125 -10.203125 2.703125 -10.203125 C 2.703125 -10.203125 2.703125 0 2.703125 0 Z M 2.703125 0 "/>
</g>
<g id="glyph-0-25-6c54a9d0">
<path d="M 7.328125 -3.59375 C 7.328125 -1.265625 6.078125 0.203125 4.1875 0.203125 C 3.234375 0.203125 2.546875 -0.125 1.9375 -0.875 C 1.9375 -0.875 1.9375 3.046875 1.9375 3.046875 C 1.9375 3.046875 0.765625 3.046875 0.765625 3.046875 C 0.765625 3.046875 0.765625 -7.34375 0.765625 -7.34375 C 0.765625 -7.34375 1.828125 -7.34375 1.828125 -7.34375 C 1.828125 -7.34375 1.828125 -6.234375 1.828125 -6.234375 C 2.375 -7.09375 3.171875 -7.546875 4.171875 -7.546875 C 6.125 -7.546875 7.328125 -6.0625 7.328125 -3.59375 Z M 6.109375 -3.625 C 6.109375 -5.375 5.265625 -6.453125 3.96875 -6.453125 C 2.75 -6.453125 1.9375 -5.328125 1.9375 -3.609375 C 1.9375 -1.890625 2.75 -0.875 3.96875 -0.875 C 5.25 -0.875 6.109375 -1.953125 6.109375 -3.625 Z M 6.109375 -3.625 "/>
</g>
<g id="glyph-0-26-6c54a9d0">
<path d="M 3.578125 -3.609375 C 3.578125 -1.40625 2.703125 1.140625 1.296875 2.96875 C 1.296875 2.96875 0.53125 2.96875 0.53125 2.96875 C 1.765625 0.984375 2.453125 -1.390625 2.453125 -3.609375 C 2.453125 -5.859375 1.765625 -8.203125 0.53125 -10.203125 C 0.53125 -10.203125 1.296875 -10.203125 1.296875 -10.203125 C 2.703125 -8.375 3.578125 -5.828125 3.578125 -3.609375 Z M 3.578125 -3.609375 "/>
</g>
<g id="glyph-0-27-6c54a9d0">
<path d="M 6.84375 -1.203125 C 6.84375 2.03125 5.859375 3.046875 3.5625 3.046875 C 1.84375 3.046875 0.765625 2.21875 0.640625 0.84375 C 0.640625 0.84375 1.828125 0.84375 1.828125 0.84375 C 1.96875 1.734375 2.6875 2.078125 3.609375 2.078125 C 4.96875 2.078125 5.765625 1.328125 5.765625 -0.609375 C 5.765625 -0.609375 5.765625 -1.109375 5.765625 -1.109375 C 5 -0.1875 4.359375 0.203125 3.4375 0.203125 C 1.703125 0.203125 0.40625 -1.28125 0.40625 -3.59375 C 0.40625 -5.984375 1.671875 -7.546875 3.53125 -7.546875 C 4.46875 -7.546875 5.1875 -7.140625 5.765625 -6.265625 C 5.765625 -6.265625 5.765625 -7.34375 5.765625 -7.34375 C 5.765625 -7.34375 6.84375 -7.34375 6.84375 -7.34375 C 6.84375 -7.34375 6.84375 -1.203125 6.84375 -1.203125 Z M 5.65625 -3.625 C 5.65625 -5.40625 4.90625 -6.46875 3.65625 -6.46875 C 2.40625 -6.46875 1.625 -5.4375 1.625 -3.671875 C 1.625 -1.890625 2.390625 -0.875 3.671875 -0.875 C 4.90625 -0.875 5.65625 -1.875 5.65625 -3.625 Z M 5.65625 -3.625 "/>
</g>
<g id="glyph-0-28-6c54a9d0">
<path d="M 2.671875 0 C 2.671875 0 1.21875 0 1.21875 0 C 1.21875 0 1.21875 -1.453125 1.21875 -1.453125 C 1.21875 -1.453125 2.671875 -1.453125 2.671875 -1.453125 C 2.671875 -1.453125 2.671875 0 2.671875 0 Z M 2.671875 -5.875 C 2.671875 -5.875 1.21875 -5.875 1.21875 -5.875 C 1.21875 -5.875 1.21875 -7.34375 1.21875 -7.34375 C 1.21875 -7.34375 2.671875 -7.34375 2.671875 -7.34375 C 2.671875 -7.34375 2.671875 -5.875 2.671875 -5.875 Z M 2.671875 -5.875 "/>
</g>
<g id="glyph-0-29-6c54a9d0">
<path d="M 10.65625 0 C 10.65625 0 9.421875 0 9.421875 0 C 9.421875 0 9.421875 -8.546875 9.421875 -8.546875 C 9.421875 -8.546875 6.546875 0 6.546875 0 C 6.546875 0 5.1875 0 5.1875 0 C 5.1875 0 2.28125 -8.546875 2.28125 -8.546875 C 2.28125 -8.546875 2.28125 0 2.28125 0 C 2.28125 0 1.046875 0 1.046875 0 C 1.046875 0 1.046875 -10.203125 1.046875 -10.203125 C 1.046875 -10.203125 2.859375 -10.203125 2.859375 -10.203125 C 2.859375 -10.203125 5.875 -1.3125 5.875 -1.3125 C 5.875 -1.3125 8.84375 -10.203125 8.84375 -10.203125 C 8.84375 -10.203125 10.65625 -10.203125 10.65625 -10.203125 C 10.65625 -10.203125 10.65625 0 10.65625 0 Z M 10.65625 0 "/>
</g>
<g id="glyph-0-30-6c54a9d0">
<path d="M 7.328125 -3.75 C 7.328125 -1.375 6.0625 0.203125 4.125 0.203125 C 3.109375 0.203125 2.359375 -0.203125 1.8125 -1.046875 C 1.8125 -1.046875 1.8125 0 1.8125 0 C 1.8125 0 0.75 0 0.75 0 C 0.75 0 0.75 -10.203125 0.75 -10.203125 C 0.75 -10.203125 1.921875 -10.203125 1.921875 -10.203125 C 1.921875 -10.203125 1.921875 -6.34375 1.921875 -6.34375 C 2.46875 -7.171875 3.171875 -7.546875 4.1875 -7.546875 C 6.125 -7.546875 7.328125 -6.125 7.328125 -3.75 Z M 6.109375 -3.6875 C 6.109375 -5.3125 5.265625 -6.453125 3.96875 -6.453125 C 2.734375 -6.515625 1.921875 -5.390625 1.921875 -3.671875 C 1.921875 -2 2.734375 -0.875 3.96875 -0.875 C 5.234375 -0.875 6.109375 -2.015625 6.109375 -3.6875 Z M 6.109375 -3.6875 "/>
</g>
<g id="glyph-0-31-6c54a9d0">
<path d="M 6.6875 -7.34375 C 6.6875 -7.34375 3.4375 1.546875 3.4375 1.546875 C 3.03125 2.59375 2.359375 3.046875 1.546875 3.046875 C 1.234375 3.046875 1 3 0.75 2.875 C 0.75 2.875 0.75 1.8125 0.75 1.8125 C 1.015625 1.875 1.203125 1.90625 1.375 1.90625 C 1.875 1.90625 2.109375 1.703125 2.3125 1.1875 C 2.3125 1.1875 2.765625 0.03125 2.765625 0.03125 C 2.765625 0.03125 0.28125 -7.34375 0.28125 -7.34375 C 0.28125 -7.34375 1.53125 -7.34375 1.53125 -7.34375 C 1.53125 -7.34375 3.40625 -1.625 3.40625 -1.625 C 3.40625 -1.625 5.4375 -7.34375 5.4375 -7.34375 C 5.4375 -7.34375 6.6875 -7.34375 6.6875 -7.34375 Z M 6.6875 -7.34375 "/>
</g>
<g id="glyph-0-32-6c54a9d0">
<path d="M 6.796875 0 C 6.796875 0 5.640625 0 5.640625 0 C 5.640625 0 5.640625 -5.078125 5.640625 -5.078125 C 5.640625 -6.046875 4.953125 -6.53125 4.125 -6.53125 C 2.921875 -6.53125 2.140625 -5.546875 2.140625 -4.046875 C 2.140625 -4.046875 2.140625 0 2.140625 0 C 2.140625 0 0.984375 0 0.984375 0 C 0.984375 0 0.984375 -10.203125 0.984375 -10.203125 C 0.984375 -10.203125 2.140625 -10.203125 2.140625 -10.203125 C 2.140625 -10.203125 2.140625 -6.328125 2.140625 -6.328125 C 2.828125 -7.21875 3.453125 -7.546875 4.5 -7.546875 C 5.921875 -7.546875 6.796875 -6.78125 6.796875 -5.546875 C 6.796875 -5.546875 6.796875 0 6.796875 0 Z M 6.796875 0 "/>
</g>
<g id="glyph-0-33-6c54a9d0">
<path d="M 6.75 0 C 6.75 0 5.703125 0 5.703125 0 C 5.703125 0 5.703125 -1.140625 5.703125 -1.140625 C 5.015625 -0.171875 4.328125 0.203125 3.25 0.203125 C 1.8125 0.203125 0.90625 -0.578125 0.90625 -1.796875 C 0.90625 -1.796875 0.90625 -7.34375 0.90625 -7.34375 C 0.90625 -7.34375 2.078125 -7.34375 2.078125 -7.34375 C 2.078125 -7.34375 2.078125 -2.25 2.078125 -2.25 C 2.078125 -1.375 2.65625 -0.8125 3.578125 -0.8125 C 4.796875 -0.8125 5.59375 -1.796875 5.59375 -3.296875 C 5.59375 -3.296875 5.59375 -7.34375 5.59375 -7.34375 C 5.59375 -7.34375 6.75 -7.34375 6.75 -7.34375 C 6.75 -7.34375 6.75 0 6.75 0 Z M 6.75 0 "/>
</g>
</g>
<clipPath id="clip-0-6c54a9d0">
<path clip-rule="nonzero" d="M 468 16 L 470 16 L 470 391 L 468 391 Z M 468 16 "/>
</clipPath>
</defs>
<rect x="-64" y="-45" width="768" height="540" fill="rgb(100%, 100%, 100%)" fill-opacity="1"/>
<path fill-rule="nonzero" fill="rgb(100%, 100%, 100%)" fill-opacity="1" d="M 101 391 L 624 391 L 624 16 L 101 16 Z M 101 391 "/>
<path fill="none" stroke-width="1" stroke-linecap="butt" stroke-linejoin="miter" stroke="rgb(0%, 0%, 0%)" stroke-opacity="0.12" stroke-miterlimit="1.154701" d="M 205.53125 391 L 205.53125 16 "/>
<path fill="none" stroke-width="1" stroke-linecap="butt" stroke-linejoin="miter" stroke="rgb(0%, 0%, 0%)" stroke-opacity="0.12" stroke-miterlimit="1.154701" d="M 337.371094 391 L 337.371094 16 "/>
<path fill="none" stroke-width="1" stroke-linecap="butt" stroke-linejoin="miter" stroke="rgb(0%, 0%, 0%)" stroke-opacity="0.12" stroke-miterlimit="1.154701" d="M 469.207031 391 L 469.207031 16 "/>
<path fill="none" stroke-width="1" stroke-linecap="butt" stroke-linejoin="miter" stroke="rgb(0%, 0%, 0%)" stroke-opacity="0.12" stroke-miterlimit="1.154701" d="M 601.046875 391 L 601.046875 16 "/>
<path fill="none" stroke-width="1" stroke-linecap="butt" stroke-linejoin="miter" stroke="rgb(0%, 0%, 0%)" stroke-opacity="0.12" stroke-miterlimit="1.154701" d="M 101 69.570312 L 624 69.570312 "/>
<path fill="none" stroke-width="1" stroke-linecap="butt" stroke-linejoin="miter" stroke="rgb(0%, 0%, 0%)" stroke-opacity="0.12" stroke-miterlimit="1.154701" d="M 101 123.144531 L 624 123.144531 "/>
<path fill="none" stroke-width="1" stroke-linecap="butt" stroke-linejoin="miter" stroke="rgb(0%, 0%, 0%)" stroke-opacity="0.12" stroke-miterlimit="1.154701" d="M 101 176.714844 L 624 176.714844 "/>
<path fill="none" stroke-width="1" stroke-linecap="butt" stroke-linejoin="miter" stroke="rgb(0%, 0%, 0%)" stroke-opacity="0.12" stroke-miterlimit="1.154701" d="M 101 230.285156 L 624 230.285156 "/>
<path fill="none" stroke-width="1" stroke-linecap="butt" stroke-linejoin="miter" stroke="rgb(0%, 0%, 0%)" stroke-opacity="0.12" stroke-miterlimit="1.154701" d="M 101 283.855469 L 624 283.855469 "/>
<path fill="none" stroke-width="1" stroke-linecap="butt" stroke-linejoin="miter" stroke="rgb(0%, 0%, 0%)" stroke-opacity="0.12" stroke-miterlimit="1.154701" d="M 101 337.429688 L 624 337.429688 "/>
<g fill="rgb(0%, 0%, 0%)" fill-opacity="1">
<use xlink:href="#glyph-0-0-6c54a9d0" x="245.390026" y="431.567999"/>
<use xlink:href="#glyph-0-1-6c54a9d0" x="254.728024" y="431.567999"/>
<use xlink:href="#glyph-0-2-6c54a9d0" x="261.728031" y="431.567999"/>
<use xlink:href="#glyph-0-3-6c54a9d0" x="265.62003" y="431.567999"/>
<use xlink:href="#glyph-0-4-6c54a9d0" x="268.728031" y="431.567999"/>
<use xlink:href="#glyph-0-5-6c54a9d0" x="280.390026" y="431.567999"/>
<use xlink:href="#glyph-0-2-6c54a9d0" x="288.174031" y="431.567999"/>
<use xlink:href="#glyph-0-6-6c54a9d0" x="292.066029" y="431.567999"/>
<use xlink:href="#glyph-0-7-6c54a9d0" x="299.850026" y="431.567999"/>
<use xlink:href="#glyph-0-5-6c54a9d0" x="303.742024" y="431.567999"/>
<use xlink:href="#glyph-0-8-6c54a9d0" x="311.526021" y="431.567999"/>
<use xlink:href="#glyph-0-9-6c54a9d0" x="319.310018" y="431.567999"/>
<use xlink:href="#glyph-0-7-6c54a9d0" x="327.094014" y="431.567999"/>
<use xlink:href="#glyph-0-10-6c54a9d0" x="330.986013" y="431.567999"/>
<use xlink:href="#glyph-0-11-6c54a9d0" x="338.770009" y="431.567999"/>
<use xlink:href="#glyph-0-12-6c54a9d0" x="346.554006" y="431.567999"/>
<use xlink:href="#glyph-0-7-6c54a9d0" x="359.000005" y="431.567999"/>
<use xlink:href="#glyph-0-13-6c54a9d0" x="362.892004" y="431.567999"/>
<use xlink:href="#glyph-0-14-6c54a9d0" x="369.892004" y="431.567999"/>
<use xlink:href="#glyph-0-8-6c54a9d0" x="377.676008" y="431.567999"/>
<use xlink:href="#glyph-0-15-6c54a9d0" x="385.460005" y="431.567999"/>
<use xlink:href="#glyph-0-3-6c54a9d0" x="389.352003" y="431.567999"/>
<use xlink:href="#glyph-0-9-6c54a9d0" x="392.460005" y="431.567999"/>
<use xlink:href="#glyph-0-6-6c54a9d0" x="400.244002" y="431.567999"/>
<use xlink:href="#glyph-0-8-6c54a9d0" x="408.027998" y="431.567999"/>
<use xlink:href="#glyph-0-13-6c54a9d0" x="415.811995" y="431.567999"/>
<use xlink:href="#glyph-0-6-6c54a9d0" x="422.811995" y="431.567999"/>
<use xlink:href="#glyph-0-7-6c54a9d0" x="430.595992" y="431.567999"/>
<use xlink:href="#glyph-0-3-6c54a9d0" x="434.48799" y="431.567999"/>
<use xlink:href="#glyph-0-8-6c54a9d0" x="437.595992" y="431.567999"/>
<use xlink:href="#glyph-0-2-6c54a9d0" x="445.379989" y="431.567999"/>
<use xlink:href="#glyph-0-6-6c54a9d0" x="449.271987" y="431.567999"/>
<use xlink:href="#glyph-0-16-6c54a9d0" x="457.055984" y="431.567999"/>
<use xlink:href="#glyph-0-17-6c54a9d0" x="461.717986" y="431.567999"/>
<use xlink:href="#glyph-0-5-6c54a9d0" x="468.717986" y="431.567999"/>
<use xlink:href="#glyph-0-18-6c54a9d0" x="476.501983" y="431.567999"/>
</g>
<g fill="rgb(0%, 0%, 0%)" fill-opacity="1">
<use xlink:href="#glyph-0-19-6c54a9d0" x="197.55255" y="412.257999"/>
<use xlink:href="#glyph-0-20-6c54a9d0" x="205.72855" y="412.257999"/>
</g>
<g fill="rgb(0%, 0%, 0%)" fill-opacity="1">
<use xlink:href="#glyph-0-19-6c54a9d0" x="329.390397" y="412.257999"/>
<use xlink:href="#glyph-0-21-6c54a9d0" x="337.566397" y="412.257999"/>
</g>
<g fill="rgb(0%, 0%, 0%)" fill-opacity="1">
<use xlink:href="#glyph-0-22-6c54a9d0" x="465.316259" y="412.257999"/>
</g>
<g fill="rgb(0%, 0%, 0%)" fill-opacity="1">
<use xlink:href="#glyph-0-21-6c54a9d0" x="597.15409" y="412.257999"/>
</g>
<g fill="rgb(0%, 0%, 0%)" fill-opacity="1">
<use xlink:href="#glyph-0-23-6c54a9d0" x="27.202004" y="74.674433"/>
<use xlink:href="#glyph-0-24-6c54a9d0" x="31.864003" y="74.674433"/>
<use xlink:href="#glyph-0-8-6c54a9d0" x="35.756005" y="74.674433"/>
<use xlink:href="#glyph-0-2-6c54a9d0" x="43.540002" y="74.674433"/>
<use xlink:href="#glyph-0-6-6c54a9d0" x="47.432004" y="74.674433"/>
<use xlink:href="#glyph-0-16-6c54a9d0" x="55.216004" y="74.674433"/>
<use xlink:href="#glyph-0-13-6c54a9d0" x="59.878003" y="74.674433"/>
<use xlink:href="#glyph-0-6-6c54a9d0" x="66.878003" y="74.674433"/>
<use xlink:href="#glyph-0-25-6c54a9d0" x="74.662004" y="74.674433"/>
<use xlink:href="#glyph-0-2-6c54a9d0" x="82.446004" y="74.674433"/>
<use xlink:href="#glyph-0-26-6c54a9d0" x="86.338003" y="74.674433"/>
</g>
<g fill="rgb(0%, 0%, 0%)" fill-opacity="1">
<use xlink:href="#glyph-0-5-6c54a9d0" x="55.202" y="128.245845"/>
<use xlink:href="#glyph-0-8-6c54a9d0" x="62.986001" y="128.245845"/>
<use xlink:href="#glyph-0-27-6c54a9d0" x="70.770002" y="128.245845"/>
<use xlink:href="#glyph-0-6-6c54a9d0" x="78.554" y="128.245845"/>
<use xlink:href="#glyph-0-16-6c54a9d0" x="86.338001" y="128.245845"/>
</g>
<g fill="rgb(0%, 0%, 0%)" fill-opacity="1">
<use xlink:href="#glyph-0-27-6c54a9d0" x="27.972008" y="181.817288"/>
<use xlink:href="#glyph-0-6-6c54a9d0" x="35.756009" y="181.817288"/>
<use xlink:href="#glyph-0-8-6c54a9d0" x="43.540009" y="181.817288"/>
<use xlink:href="#glyph-0-9-6c54a9d0" x="51.324006" y="181.817288"/>
<use xlink:href="#glyph-0-6-6c54a9d0" x="59.108008" y="181.817288"/>
<use xlink:href="#glyph-0-16-6c54a9d0" x="66.892007" y="181.817288"/>
<use xlink:href="#glyph-0-28-6c54a9d0" x="71.554006" y="181.817288"/>
<use xlink:href="#glyph-0-7-6c54a9d0" x="75.446004" y="181.817288"/>
<use xlink:href="#glyph-0-29-6c54a9d0" x="79.338002" y="181.817288"/>
</g>
<g fill="rgb(0%, 0%, 0%)" fill-opacity="1">
<use xlink:href="#glyph-0-30-6c54a9d0" x="16.296005" y="235.388716"/>
<use xlink:href="#glyph-0-2-6c54a9d0" x="24.080002" y="235.388716"/>
<use xlink:href="#glyph-0-31-6c54a9d0" x="27.972004" y="235.388716"/>
<use xlink:href="#glyph-0-25-6c54a9d0" x="34.972004" y="235.388716"/>
<use xlink:href="#glyph-0-6-6c54a9d0" x="42.756005" y="235.388716"/>
<use xlink:href="#glyph-0-28-6c54a9d0" x="50.540005" y="235.388716"/>
<use xlink:href="#glyph-0-7-6c54a9d0" x="54.432004" y="235.388716"/>
<use xlink:href="#glyph-0-1-6c54a9d0" x="58.324002" y="235.388716"/>
<use xlink:href="#glyph-0-13-6c54a9d0" x="65.324002" y="235.388716"/>
<use xlink:href="#glyph-0-14-6c54a9d0" x="72.324002" y="235.388716"/>
<use xlink:href="#glyph-0-18-6c54a9d0" x="80.108003" y="235.388716"/>
<use xlink:href="#glyph-0-9-6c54a9d0" x="83.216005" y="235.388716"/>
</g>
<g fill="rgb(0%, 0%, 0%)" fill-opacity="1">
<use xlink:href="#glyph-0-30-6c54a9d0" x="14.728012" y="288.960143"/>
<use xlink:href="#glyph-0-2-6c54a9d0" x="22.512009" y="288.960143"/>
<use xlink:href="#glyph-0-31-6c54a9d0" x="26.404015" y="288.960143"/>
<use xlink:href="#glyph-0-25-6c54a9d0" x="33.404011" y="288.960143"/>
<use xlink:href="#glyph-0-6-6c54a9d0" x="41.188012" y="288.960143"/>
<use xlink:href="#glyph-0-28-6c54a9d0" x="48.972012" y="288.960143"/>
<use xlink:href="#glyph-0-7-6c54a9d0" x="52.864011" y="288.960143"/>
<use xlink:href="#glyph-0-1-6c54a9d0" x="56.756009" y="288.960143"/>
<use xlink:href="#glyph-0-32-6c54a9d0" x="63.756009" y="288.960143"/>
<use xlink:href="#glyph-0-14-6c54a9d0" x="71.54001" y="288.960143"/>
<use xlink:href="#glyph-0-33-6c54a9d0" x="79.324006" y="288.960143"/>
<use xlink:href="#glyph-0-2-6c54a9d0" x="87.108003" y="288.960143"/>
</g>
<g fill="rgb(0%, 0%, 0%)" fill-opacity="1">
<use xlink:href="#glyph-0-1-6c54a9d0" x="39.647999" y="342.531571"/>
<use xlink:href="#glyph-0-3-6c54a9d0" x="46.648" y="342.531571"/>
<use xlink:href="#glyph-0-2-6c54a9d0" x="49.755997" y="342.531571"/>
<use xlink:href="#glyph-0-33-6c54a9d0" x="53.648" y="342.531571"/>
<use xlink:href="#glyph-0-28-6c54a9d0" x="61.432" y="342.531571"/>
<use xlink:href="#glyph-0-7-6c54a9d0" x="65.324" y="342.531571"/>
<use xlink:href="#glyph-0-1-6c54a9d0" x="69.216001" y="342.531571"/>
<use xlink:href="#glyph-0-6-6c54a9d0" x="76.216001" y="342.531571"/>
<use xlink:href="#glyph-0-18-6c54a9d0" x="84.000001" y="342.531571"/>
<use xlink:href="#glyph-0-15-6c54a9d0" x="87.108003" y="342.531571"/>
</g>
<path fill-rule="nonzero" fill="rgb(0%, 0%, 0%)" fill-opacity="1" d="M 498.703125 69.570312 C 498.703125 65.339844 492.359375 65.339844 492.359375 69.570312 C 492.359375 73.800781 498.703125 73.800781 498.703125 69.570312 Z M 498.703125 69.570312 "/>
<path fill-rule="nonzero" fill="rgb(0%, 0%, 0%)" fill-opacity="1" d="M 479.953125 123.144531 C 479.953125 118.914062 473.605469 118.914062 473.605469 123.144531 C 473.605469 127.371094 479.953125 127.371094 479.953125 123.144531 Z M 479.953125 123.144531 "/>
<path fill-rule="nonzero" fill="rgb(0%, 0%, 0%)" fill-opacity="1" d="M 514.652344 176.714844 C 514.652344 172.484375 508.308594 172.484375 508.308594 176.714844 C 508.308594 180.945312 514.652344 180.945312 514.652344 176.714844 Z M 514.652344 176.714844 "/>
<path fill-rule="nonzero" fill="rgb(0%, 0%, 0%)" fill-opacity="1" d="M 332.714844 230.285156 C 332.714844 226.054688 326.367188 226.054688 326.367188 230.285156 C 326.367188 234.515625 332.714844 234.515625 332.714844 230.285156 Z M 332.714844 230.285156 "/>
<path fill-rule="nonzero" fill="rgb(0%, 0%, 0%)" fill-opacity="1" d="M 194.75 283.855469 C 194.75 279.628906 188.402344 279.628906 188.402344 283.855469 C 188.402344 288.085938 194.75 288.085938 194.75 283.855469 Z M 194.75 283.855469 "/>
<path fill-rule="nonzero" fill="rgb(0%, 0%, 0%)" fill-opacity="1" d="M 333.1875 337.429688 C 333.1875 333.199219 326.839844 333.199219 326.839844 337.429688 C 326.839844 341.660156 333.1875 341.660156 333.1875 337.429688 Z M 333.1875 337.429688 "/>
<path fill="none" stroke-width="1.5" stroke-linecap="butt" stroke-linejoin="miter" stroke="rgb(0%, 0%, 0%)" stroke-opacity="1" stroke-miterlimit="1.154701" d="M 390.835938 69.570312 L 600.226562 69.570312 "/>
<path fill="none" stroke-width="1.5" stroke-linecap="butt" stroke-linejoin="miter" stroke="rgb(0%, 0%, 0%)" stroke-opacity="1" stroke-miterlimit="1.154701" d="M 472.449219 123.144531 L 481.109375 123.144531 "/>
<path fill="none" stroke-width="1.5" stroke-linecap="butt" stroke-linejoin="miter" stroke="rgb(0%, 0%, 0%)" stroke-opacity="1" stroke-miterlimit="1.154701" d="M 462.0625 176.714844 L 560.902344 176.714844 "/>
<path fill="none" stroke-width="1.5" stroke-linecap="butt" stroke-linejoin="miter" stroke="rgb(0%, 0%, 0%)" stroke-opacity="1" stroke-miterlimit="1.154701" d="M 263.183594 230.285156 L 395.898438 230.285156 "/>
<path fill="none" stroke-width="1.5" stroke-linecap="butt" stroke-linejoin="miter" stroke="rgb(0%, 0%, 0%)" stroke-opacity="1" stroke-miterlimit="1.154701" d="M 124.773438 283.855469 L 258.378906 283.855469 "/>
<path fill="none" stroke-width="1.5" stroke-linecap="butt" stroke-linejoin="miter" stroke="rgb(0%, 0%, 0%)" stroke-opacity="1" stroke-miterlimit="1.154701" d="M 275.671875 337.429688 L 384.355469 337.429688 "/>
<g clip-path="url(#clip-0-6c54a9d0)">
<path fill="none" stroke-width="1.5" stroke-linecap="butt" stroke-linejoin="miter" stroke="rgb(0%, 0%, 0%)" stroke-opacity="0.75" stroke-dasharray="4.5 4.5" stroke-miterlimit="1.154701" d="M 469.207031 391 L 469.207031 16 "/>
</g>
<path fill="none" stroke-width="1" stroke-linecap="butt" stroke-linejoin="miter" stroke="rgb(0%, 0%, 0%)" stroke-opacity="1" stroke-miterlimit="1.154701" d="M 205.53125 391.5 L 205.53125 396.5 "/>
<path fill="none" stroke-width="1" stroke-linecap="butt" stroke-linejoin="miter" stroke="rgb(0%, 0%, 0%)" stroke-opacity="1" stroke-miterlimit="1.154701" d="M 337.371094 391.5 L 337.371094 396.5 "/>
<path fill="none" stroke-width="1" stroke-linecap="butt" stroke-linejoin="miter" stroke="rgb(0%, 0%, 0%)" stroke-opacity="1" stroke-miterlimit="1.154701" d="M 469.207031 391.5 L 469.207031 396.5 "/>
<path fill="none" stroke-width="1" stroke-linecap="butt" stroke-linejoin="miter" stroke="rgb(0%, 0%, 0%)" stroke-opacity="1" stroke-miterlimit="1.154701" d="M 601.046875 391.5 L 601.046875 396.5 "/>
<path fill="none" stroke-width="1" stroke-linecap="butt" stroke-linejoin="miter" stroke="rgb(0%, 0%, 0%)" stroke-opacity="1" stroke-miterlimit="1.154701" d="M 100.5 69.570312 L 95.5 69.570312 "/>
<path fill="none" stroke-width="1" stroke-linecap="butt" stroke-linejoin="miter" stroke="rgb(0%, 0%, 0%)" stroke-opacity="1" stroke-miterlimit="1.154701" d="M 100.5 123.144531 L 95.5 123.144531 "/>
<path fill="none" stroke-width="1" stroke-linecap="butt" stroke-linejoin="miter" stroke="rgb(0%, 0%, 0%)" stroke-opacity="1" stroke-miterlimit="1.154701" d="M 100.5 176.714844 L 95.5 176.714844 "/>
<path fill="none" stroke-width="1" stroke-linecap="butt" stroke-linejoin="miter" stroke="rgb(0%, 0%, 0%)" stroke-opacity="1" stroke-miterlimit="1.154701" d="M 100.5 230.285156 L 95.5 230.285156 "/>
<path fill="none" stroke-width="1" stroke-linecap="butt" stroke-linejoin="miter" stroke="rgb(0%, 0%, 0%)" stroke-opacity="1" stroke-miterlimit="1.154701" d="M 100.5 283.855469 L 95.5 283.855469 "/>
<path fill="none" stroke-width="1" stroke-linecap="butt" stroke-linejoin="miter" stroke="rgb(0%, 0%, 0%)" stroke-opacity="1" stroke-miterlimit="1.154701" d="M 100.5 337.429688 L 95.5 337.429688 "/>
<path fill="none" stroke-width="1" stroke-linecap="butt" stroke-linejoin="miter" stroke="rgb(0%, 0%, 0%)" stroke-opacity="1" stroke-miterlimit="1.154701" d="M 100.5 391 L 624.5 391 "/>
<path fill="none" stroke-width="1" stroke-linecap="butt" stroke-linejoin="miter" stroke="rgb(0%, 0%, 0%)" stroke-opacity="1" stroke-miterlimit="1.154701" d="M 101 391.5 L 101 15.5 "/>
<path fill="none" stroke-width="1" stroke-linecap="butt" stroke-linejoin="miter" stroke="rgb(0%, 0%, 0%)" stroke-opacity="1" stroke-miterlimit="1.154701" d="M 100.5 16 L 624.5 16 "/>
<path fill="none" stroke-width="1" stroke-linecap="butt" stroke-linejoin="miter" stroke="rgb(0%, 0%, 0%)" stroke-opacity="1" stroke-miterlimit="1.154701" d="M 624 391.5 L 624 15.5 "/>
</svg>
